<?xml version="1.0" standalone="no"?>
<!DOCTYPE svg PUBLIC "-//W3C//DTD SVG 20010904//EN"
 "http://www.w3.org/TR/2001/REC-SVG-20010904/DTD/svg10.dtd">
<svg version="1.0" xmlns="http://www.w3.org/2000/svg"
 width="720.000000pt" height="586.000000pt" viewBox="0 0 720.000000 586.000000"
 preserveAspectRatio="xMidYMid meet">

<g transform="translate(0.000000,586.000000) scale(0.100000,-0.100000)"
fill="#000000" stroke="none">
<path d="M4997 4548 c-446 -32 -808 -318 -923 -729 -8 -30 -18 -112 -21 -184
-11 -264 63 -475 225 -647 121 -128 334 -246 637 -352 392 -138 499 -207 557
-360 18 -48 23 -80 22 -152 -1 -80 -4 -99 -32 -158 -17 -36 -54 -90 -82 -120
-122 -129 -350 -184 -575 -137 -195 40 -360 144 -453 286 l-50 76 -29 -48
c-15 -26 -81 -131 -145 -232 -65 -101 -118 -188 -118 -194 0 -19 147 -160 210
-202 451 -298 1089 -297 1487 2 453 341 507 1030 111 1424 -128 127 -258 197
-578 314 -294 107 -405 161 -492 243 -113 106 -137 266 -62 419 55 111 200
204 349 223 165 21 371 -35 480 -131 21 -19 40 -28 44 -23 5 5 64 101 131 214
67 113 129 212 137 221 12 15 11 19 -12 37 -47 37 -222 122 -314 152 -163 53
-322 71 -504 58z"/>
<path d="M2382 4539 c-424 -57 -756 -296 -812 -585 -8 -42 -10 -354 -8 -1099
l3 -1040 27 -63 c137 -320 451 -528 867 -573 195 -21 441 6 613 67 334 119
601 387 672 674 96 392 -15 711 -319 909 -42 28 -81 51 -86 51 -4 0 -20 5 -36
11 l-28 10 55 31 c30 17 96 72 145 122 105 105 161 204 197 346 30 119 30 301
0 424 -21 83 -79 214 -125 281 -144 209 -371 349 -672 416 -106 23 -379 33
-493 18z m418 -554 c90 -33 169 -83 204 -130 41 -54 74 -133 81 -194 4 -31 8
-66 10 -78 7 -41 -15 -157 -40 -210 -32 -71 -102 -144 -171 -177 -102 -50
-174 -60 -446 -60 -135 -1 -250 3 -255 7 -4 5 -9 181 -9 392 l-2 383 47 25
c110 59 201 77 371 73 119 -3 144 -6 210 -31z m-20 -1362 c228 -46 365 -191
385 -409 17 -186 -61 -347 -209 -429 -152 -83 -411 -111 -590 -63 -45 11 -82
25 -84 30 -2 4 -10 8 -17 8 -24 0 -65 23 -65 36 0 7 -5 14 -11 16 -10 3 -10
50 -8 660 l1 167 152 4 c207 5 357 -2 446 -20z"/>
</g>
</svg>
